<svg width="140" height="36" viewBox="0 0 140 36" fill="none" xmlns="http://www.w3.org/2000/svg">
<path d="M24.5 2C24.5 1.72386 24.7239 1.5 25 1.5H29C31.4853 1.5 33.5 3.51472 33.5 6V34C33.5 34.2761 33.2761 34.5 33 34.5H25C24.7239 34.5 24.5 34.2761 24.5 34V2Z" fill="#FEB73D" stroke="#1B3954"/>
<path d="M0.5 6C0.5 3.51472 2.51472 1.5 5 1.5H9C9.27614 1.5 9.5 1.72386 9.5 2V34C9.5 34.2761 9.27614 34.5 9 34.5H1C0.723858 34.5 0.5 34.2761 0.5 34V6Z" fill="#FEB73D" stroke="#1B3954"/>
<path d="M16.9497 17.1569L6.34314 6.55026" stroke="#FEB73D" stroke-width="9" stroke-linecap="round"/>
<path d="M17.3432 17.1569L27.9498 6.55026" stroke="#FEB73D" stroke-width="9" stroke-linecap="round"/>
<path d="M42.4404 32.3758C41.667 32.3758 40.9756 32.2557 40.3662 32.0154C39.7568 31.7693 39.2412 31.4324 38.8193 31.0047C38.4033 30.577 38.084 30.0848 37.8613 29.5281C37.6445 28.9715 37.5361 28.3826 37.5361 27.7615V27.4276C37.5361 26.7303 37.6328 26.0858 37.8262 25.494C38.0195 24.8963 38.3066 24.3748 38.6875 23.9295C39.0684 23.4842 39.5459 23.1385 40.1201 22.8924C40.6943 22.6404 41.3623 22.5145 42.124 22.5145C42.7979 22.5145 43.4014 22.6229 43.9346 22.8397C44.4678 23.0565 44.9189 23.367 45.2881 23.7713C45.6631 24.1756 45.9473 24.6649 46.1406 25.2391C46.3398 25.8133 46.4395 26.4578 46.4395 27.1727V28.3768H38.6699V26.5223H43.5479V26.2938C43.5537 25.9774 43.498 25.7078 43.3809 25.4852C43.2695 25.2625 43.1055 25.0926 42.8887 24.9754C42.6719 24.8582 42.4082 24.7996 42.0977 24.7996C41.7754 24.7996 41.5088 24.8699 41.2979 25.0106C41.0928 25.1512 40.9316 25.3445 40.8145 25.5906C40.7031 25.8309 40.624 26.1092 40.5771 26.4256C40.5303 26.742 40.5068 27.076 40.5068 27.4276V27.7615C40.5068 28.1131 40.5537 28.4324 40.6475 28.7195C40.7471 29.0067 40.8877 29.2527 41.0693 29.4578C41.2568 29.657 41.4795 29.8123 41.7373 29.9236C42.001 30.035 42.2998 30.0906 42.6338 30.0906C43.0381 30.0906 43.4365 30.0145 43.8291 29.8621C44.2217 29.7098 44.5586 29.4578 44.8398 29.1063L46.1846 30.7059C45.9912 30.9813 45.7158 31.2479 45.3584 31.5057C45.0068 31.7635 44.585 31.9744 44.0928 32.1385C43.6006 32.2967 43.0498 32.3758 42.4404 32.3758ZM50.1572 22.6902L51.4932 25.3094L52.873 22.6902H55.9492L53.4531 27.3221L56.0811 32.2H52.9785L51.4932 29.3875L50.0166 32.2H46.9141L49.542 27.3221L47.0547 22.6902H50.1572ZM59.9131 24.5184V35.8563H56.9512V22.6902H59.7109L59.9131 24.5184ZM65.749 27.3309V27.5154C65.749 28.2068 65.6699 28.8484 65.5117 29.4402C65.3535 30.032 65.1191 30.5477 64.8086 30.9871C64.498 31.4266 64.1113 31.7693 63.6484 32.0154C63.1914 32.2557 62.6611 32.3758 62.0576 32.3758C61.4893 32.3758 61 32.2498 60.5898 31.9979C60.1797 31.7459 59.8369 31.3973 59.5615 30.952C59.2861 30.5067 59.0635 29.9969 58.8936 29.4227C58.7236 28.8484 58.5889 28.242 58.4893 27.6033V27.366C58.5889 26.6805 58.7236 26.0447 58.8936 25.4588C59.0635 24.867 59.2861 24.3514 59.5615 23.9119C59.8369 23.4725 60.1768 23.1297 60.5811 22.8836C60.9912 22.6375 61.4805 22.5145 62.0488 22.5145C62.6523 22.5145 63.1826 22.6287 63.6396 22.8572C64.1025 23.0858 64.4893 23.4139 64.7998 23.8416C65.1162 24.2635 65.3535 24.7703 65.5117 25.3621C65.6699 25.9539 65.749 26.6102 65.749 27.3309ZM62.7871 27.5154V27.3309C62.7871 26.9617 62.7607 26.6248 62.708 26.3201C62.6553 26.0096 62.5703 25.7401 62.4531 25.5115C62.3418 25.283 62.1924 25.1072 62.0049 24.9842C61.8174 24.8611 61.5859 24.7996 61.3105 24.7996C60.9941 24.7996 60.7275 24.8494 60.5107 24.949C60.2998 25.0428 60.1299 25.1893 60.001 25.3885C59.8779 25.5818 59.79 25.825 59.7373 26.118C59.6904 26.4051 59.6699 26.742 59.6758 27.1287V27.8494C59.6641 28.2947 59.708 28.6873 59.8076 29.0272C59.9072 29.3611 60.0801 29.6219 60.3262 29.8094C60.5723 29.9969 60.9062 30.0906 61.3281 30.0906C61.6094 30.0906 61.8438 30.0262 62.0312 29.8973C62.2188 29.7625 62.3682 29.5779 62.4795 29.3436C62.5908 29.1033 62.6699 28.8279 62.7168 28.5174C62.7637 28.2068 62.7871 27.8729 62.7871 27.5154ZM70.1963 18.7V32.2H67.2256V18.7H70.1963ZM71.6553 27.5418V27.3572C71.6553 26.66 71.7549 26.0184 71.9541 25.4324C72.1533 24.8406 72.4463 24.3279 72.833 23.8943C73.2197 23.4608 73.6973 23.1238 74.2656 22.8836C74.834 22.6375 75.4902 22.5145 76.2344 22.5145C76.9844 22.5145 77.6436 22.6375 78.2119 22.8836C78.7861 23.1238 79.2666 23.4608 79.6533 23.8943C80.04 24.3279 80.333 24.8406 80.5322 25.4324C80.7314 26.0184 80.8311 26.66 80.8311 27.3572V27.5418C80.8311 28.2332 80.7314 28.8748 80.5322 29.4666C80.333 30.0526 80.04 30.5652 79.6533 31.0047C79.2666 31.4383 78.7891 31.7752 78.2207 32.0154C77.6523 32.2557 76.9961 32.3758 76.252 32.3758C75.5078 32.3758 74.8486 32.2557 74.2744 32.0154C73.7002 31.7752 73.2197 31.4383 72.833 31.0047C72.4463 30.5652 72.1533 30.0526 71.9541 29.4666C71.7549 28.8748 71.6553 28.2332 71.6553 27.5418ZM74.6172 27.3572V27.5418C74.6172 27.8992 74.6436 28.2332 74.6963 28.5438C74.749 28.8543 74.8369 29.1268 74.96 29.3611C75.083 29.5897 75.25 29.7684 75.4609 29.8973C75.6719 30.0262 75.9355 30.0906 76.252 30.0906C76.5625 30.0906 76.8203 30.0262 77.0254 29.8973C77.2363 29.7684 77.4033 29.5897 77.5264 29.3611C77.6494 29.1268 77.7373 28.8543 77.79 28.5438C77.8428 28.2332 77.8691 27.8992 77.8691 27.5418V27.3572C77.8691 27.0115 77.8428 26.6863 77.79 26.3817C77.7373 26.0711 77.6494 25.7986 77.5264 25.5643C77.4033 25.324 77.2363 25.1365 77.0254 25.0018C76.8145 24.867 76.5508 24.7996 76.2344 24.7996C75.9238 24.7996 75.6631 24.867 75.4521 25.0018C75.2471 25.1365 75.083 25.324 74.96 25.5643C74.8369 25.7986 74.749 26.0711 74.6963 26.3817C74.6436 26.6863 74.6172 27.0115 74.6172 27.3572ZM85.1377 25.0457V32.2H82.1758V22.6902H84.9443L85.1377 25.0457ZM87.9502 22.6199L87.8975 25.3709C87.7803 25.3592 87.6221 25.3445 87.4229 25.327C87.2236 25.3094 87.0566 25.3006 86.9219 25.3006C86.5762 25.3006 86.2773 25.3416 86.0254 25.4236C85.7793 25.4998 85.5742 25.617 85.4102 25.7752C85.252 25.9276 85.1348 26.1209 85.0586 26.3553C84.9883 26.5897 84.9561 26.8621 84.9619 27.1727L84.4258 26.8211C84.4258 26.1824 84.4873 25.6024 84.6104 25.0809C84.7393 24.5535 84.9209 24.0994 85.1553 23.7186C85.3896 23.3318 85.6738 23.0359 86.0078 22.8309C86.3418 22.6199 86.7168 22.5145 87.1328 22.5145C87.2793 22.5145 87.4229 22.5233 87.5635 22.5408C87.71 22.5584 87.8389 22.5848 87.9502 22.6199ZM93.3994 32.3758C92.626 32.3758 91.9346 32.2557 91.3252 32.0154C90.7158 31.7693 90.2002 31.4324 89.7783 31.0047C89.3623 30.577 89.043 30.0848 88.8203 29.5281C88.6035 28.9715 88.4951 28.3826 88.4951 27.7615V27.4276C88.4951 26.7303 88.5918 26.0858 88.7852 25.494C88.9785 24.8963 89.2656 24.3748 89.6465 23.9295C90.0273 23.4842 90.5049 23.1385 91.0791 22.8924C91.6533 22.6404 92.3213 22.5145 93.083 22.5145C93.7568 22.5145 94.3604 22.6229 94.8936 22.8397C95.4268 23.0565 95.8779 23.367 96.2471 23.7713C96.6221 24.1756 96.9062 24.6649 97.0996 25.2391C97.2988 25.8133 97.3984 26.4578 97.3984 27.1727V28.3768H89.6289V26.5223H94.5068V26.2938C94.5127 25.9774 94.457 25.7078 94.3398 25.4852C94.2285 25.2625 94.0645 25.0926 93.8477 24.9754C93.6309 24.8582 93.3672 24.7996 93.0566 24.7996C92.7344 24.7996 92.4678 24.8699 92.2568 25.0106C92.0518 25.1512 91.8906 25.3445 91.7734 25.5906C91.6621 25.8309 91.583 26.1092 91.5361 26.4256C91.4893 26.742 91.4658 27.076 91.4658 27.4276V27.7615C91.4658 28.1131 91.5127 28.4324 91.6064 28.7195C91.7061 29.0067 91.8467 29.2527 92.0283 29.4578C92.2158 29.657 92.4385 29.8123 92.6963 29.9236C92.96 30.035 93.2588 30.0906 93.5928 30.0906C93.9971 30.0906 94.3955 30.0145 94.7881 29.8621C95.1807 29.7098 95.5176 29.4578 95.7988 29.1063L97.1436 30.7059C96.9502 30.9813 96.6748 31.2479 96.3174 31.5057C95.9658 31.7635 95.5439 31.9744 95.0518 32.1385C94.5596 32.2967 94.0088 32.3758 93.3994 32.3758ZM101.591 25.0457V32.2H98.6289V22.6902H101.397L101.591 25.0457ZM104.403 22.6199L104.351 25.3709C104.233 25.3592 104.075 25.3445 103.876 25.327C103.677 25.3094 103.51 25.3006 103.375 25.3006C103.029 25.3006 102.73 25.3416 102.479 25.4236C102.232 25.4998 102.027 25.617 101.863 25.7752C101.705 25.9276 101.588 26.1209 101.512 26.3553C101.441 26.5897 101.409 26.8621 101.415 27.1727L100.879 26.8211C100.879 26.1824 100.94 25.6024 101.063 25.0809C101.192 24.5535 101.374 24.0994 101.608 23.7186C101.843 23.3318 102.127 23.0359 102.461 22.8309C102.795 22.6199 103.17 22.5145 103.586 22.5145C103.732 22.5145 103.876 22.5233 104.017 22.5408C104.163 22.5584 104.292 22.5848 104.403 22.6199Z" fill="#1B3954"/>
<path d="M39.0615 2.35938H42.1338L45.625 13.2412L49.1162 2.35938H52.1885L46.8711 18H44.3789L39.0615 2.35938ZM37.1924 2.35938H40.3721L40.9629 14.3477V18H37.1924V2.35938ZM50.8779 2.35938H54.0684V18H50.2871V14.3477L50.8779 2.35938ZM63.1025 15.1748V6.37695H66.7334V18H63.3389L63.1025 15.1748ZM63.4463 12.8115L64.3916 12.79C64.3916 13.5706 64.2985 14.2939 64.1123 14.96C63.9261 15.6188 63.6504 16.1917 63.2852 16.6787C62.9271 17.1657 62.4831 17.5452 61.9531 17.8174C61.4303 18.0824 60.8252 18.2148 60.1377 18.2148C59.5648 18.2148 59.0384 18.1361 58.5586 17.9785C58.0859 17.8138 57.6777 17.5596 57.334 17.2158C56.9902 16.8649 56.7217 16.4173 56.5283 15.873C56.3421 15.3216 56.249 14.6628 56.249 13.8965V6.37695H59.8691V13.918C59.8691 14.1758 59.9014 14.3978 59.9658 14.584C60.0303 14.7702 60.1234 14.9277 60.2451 15.0566C60.3669 15.1784 60.5173 15.2715 60.6963 15.3359C60.8825 15.3932 61.0938 15.4219 61.3301 15.4219C61.8743 15.4219 62.3005 15.3073 62.6084 15.0781C62.9163 14.849 63.1312 14.5374 63.2529 14.1436C63.3818 13.7497 63.4463 13.3057 63.4463 12.8115ZM72.2871 8.8584V18H68.667V6.37695H72.0615L72.2871 8.8584ZM71.8574 11.791L71.0088 11.8125C71.0088 10.9245 71.1162 10.1331 71.3311 9.43848C71.5459 8.73665 71.8503 8.14225 72.2441 7.65527C72.638 7.16829 73.1071 6.79948 73.6514 6.54883C74.2028 6.29102 74.8151 6.16211 75.4883 6.16211C76.0254 6.16211 76.516 6.24089 76.96 6.39844C77.4111 6.55599 77.7979 6.81022 78.1201 7.16113C78.4495 7.51204 78.7002 7.97754 78.8721 8.55762C79.0511 9.13053 79.1406 9.83952 79.1406 10.6846V18H75.499V10.6738C75.499 10.2083 75.4346 9.85384 75.3057 9.61035C75.1768 9.3597 74.9906 9.18783 74.7471 9.09473C74.5036 9.00163 74.2064 8.95508 73.8555 8.95508C73.4831 8.95508 73.168 9.02669 72.9102 9.16992C72.6523 9.31315 72.4447 9.51367 72.2871 9.77148C72.1367 10.0221 72.0257 10.3193 71.9541 10.6631C71.8896 11.0068 71.8574 11.3828 71.8574 11.791ZM87.1865 15.0781V10.2871C87.1865 9.95768 87.14 9.6748 87.0469 9.43848C86.9538 9.20215 86.807 9.01953 86.6064 8.89062C86.4059 8.75456 86.1374 8.68652 85.8008 8.68652C85.5286 8.68652 85.2959 8.73307 85.1025 8.82617C84.9092 8.91927 84.7624 9.05892 84.6621 9.24512C84.5618 9.43132 84.5117 9.66764 84.5117 9.9541H80.8916C80.8916 9.41699 81.0098 8.91927 81.2461 8.46094C81.4896 7.99544 81.8333 7.59082 82.2773 7.24707C82.7285 6.90332 83.2656 6.63835 83.8887 6.45215C84.5189 6.25879 85.2207 6.16211 85.9941 6.16211C86.918 6.16211 87.7415 6.31608 88.4648 6.62402C89.1953 6.93197 89.7718 7.39388 90.1943 8.00977C90.6169 8.61849 90.8281 9.38477 90.8281 10.3086V15.0674C90.8281 15.8265 90.8711 16.403 90.957 16.7969C91.043 17.1836 91.1647 17.5238 91.3223 17.8174V18H87.6914C87.5195 17.6419 87.3906 17.2051 87.3047 16.6895C87.2259 16.1667 87.1865 15.6296 87.1865 15.0781ZM87.627 10.8994L87.6484 12.833H86.0479C85.7113 12.833 85.4248 12.8796 85.1885 12.9727C84.9593 13.0658 84.7731 13.1947 84.6299 13.3594C84.4938 13.5169 84.3936 13.696 84.3291 13.8965C84.2718 14.097 84.2432 14.3083 84.2432 14.5303C84.2432 14.7451 84.2933 14.9385 84.3936 15.1104C84.501 15.2751 84.6442 15.404 84.8232 15.4971C85.0023 15.5902 85.2028 15.6367 85.4248 15.6367C85.8258 15.6367 86.166 15.5615 86.4453 15.4111C86.7318 15.2536 86.9502 15.0638 87.1006 14.8418C87.251 14.6198 87.3262 14.4121 87.3262 14.2188L88.1211 15.7012C87.9779 15.9876 87.8132 16.2777 87.627 16.5713C87.4479 16.8649 87.2223 17.137 86.9502 17.3877C86.6852 17.6312 86.3594 17.8317 85.9727 17.9893C85.5859 18.1396 85.1169 18.2148 84.5654 18.2148C83.8493 18.2148 83.1904 18.068 82.5889 17.7744C81.9945 17.4808 81.5182 17.0726 81.1602 16.5498C80.8021 16.0199 80.623 15.4111 80.623 14.7236C80.623 14.1221 80.7305 13.585 80.9453 13.1123C81.1673 12.6396 81.5003 12.2386 81.9443 11.9092C82.3883 11.5798 82.9541 11.3291 83.6416 11.1572C84.3291 10.9854 85.1383 10.8994 86.0693 10.8994H87.627ZM96.2314 16.6357L99.2393 6.37695H103.128L98.4551 19.7295C98.3548 20.0231 98.2223 20.3382 98.0576 20.6748C97.8929 21.0186 97.6673 21.3444 97.3809 21.6523C97.0944 21.9603 96.7256 22.2109 96.2744 22.4043C95.8304 22.5977 95.279 22.6943 94.6201 22.6943C94.2692 22.6943 94.0114 22.6764 93.8467 22.6406C93.6891 22.612 93.4456 22.5583 93.1162 22.4795V19.8906C93.2093 19.8906 93.2881 19.8906 93.3525 19.8906C93.4242 19.8906 93.5029 19.8906 93.5889 19.8906C93.9756 19.8906 94.2835 19.8512 94.5127 19.7725C94.749 19.6937 94.9281 19.5791 95.0498 19.4287C95.1787 19.2783 95.279 19.0957 95.3506 18.8809L96.2314 16.6357ZM95.4688 6.37695L97.7568 14.5088L98.1543 18.3438H95.7266L91.5908 6.37695H95.4688ZM108.832 15.4219C109.169 15.4219 109.455 15.361 109.691 15.2393C109.935 15.1104 110.118 14.9313 110.239 14.7021C110.368 14.4658 110.429 14.1829 110.422 13.8535H113.827C113.834 14.7272 113.619 15.4935 113.183 16.1523C112.753 16.804 112.166 17.3125 111.421 17.6777C110.683 18.0358 109.849 18.2148 108.918 18.2148C108.008 18.2148 107.214 18.068 106.533 17.7744C105.853 17.4736 105.284 17.0583 104.825 16.5283C104.374 15.9912 104.034 15.3646 103.805 14.6484C103.583 13.9323 103.472 13.1553 103.472 12.3174V12.0703C103.472 11.2324 103.583 10.4554 103.805 9.73926C104.034 9.01595 104.374 8.38932 104.825 7.85938C105.284 7.32227 105.849 6.9069 106.522 6.61328C107.203 6.3125 107.994 6.16211 108.896 6.16211C109.863 6.16211 110.715 6.34473 111.453 6.70996C112.198 7.0752 112.782 7.60514 113.204 8.2998C113.627 8.99447 113.834 9.83594 113.827 10.8242H110.422C110.429 10.4733 110.375 10.1582 110.261 9.87891C110.146 9.59961 109.967 9.3776 109.724 9.21289C109.487 9.04102 109.183 8.95508 108.811 8.95508C108.438 8.95508 108.137 9.03743 107.908 9.20215C107.679 9.36686 107.504 9.59603 107.382 9.88965C107.267 10.1761 107.188 10.5055 107.146 10.8779C107.11 11.2503 107.092 11.6478 107.092 12.0703V12.3174C107.092 12.7471 107.11 13.1517 107.146 13.5312C107.188 13.9036 107.271 14.2331 107.393 14.5195C107.514 14.7988 107.69 15.0208 107.919 15.1855C108.148 15.3431 108.452 15.4219 108.832 15.4219ZM118.919 1.5V18H115.299V1.5H118.919ZM118.489 11.791L117.641 11.8125C117.641 10.9961 117.741 10.2441 117.941 9.55664C118.142 8.86914 118.428 8.27116 118.801 7.7627C119.173 7.25423 119.621 6.86035 120.144 6.58105C120.666 6.30176 121.246 6.16211 121.884 6.16211C122.457 6.16211 122.979 6.24447 123.452 6.40918C123.932 6.57389 124.344 6.83887 124.688 7.2041C125.038 7.56934 125.307 8.04557 125.493 8.63281C125.687 9.22005 125.783 9.9362 125.783 10.7812V18H122.142V10.7598C122.142 10.2871 122.074 9.92188 121.938 9.66406C121.809 9.39909 121.622 9.21647 121.379 9.11621C121.135 9.00879 120.838 8.95508 120.487 8.95508C120.065 8.95508 119.721 9.02669 119.456 9.16992C119.191 9.31315 118.987 9.51367 118.844 9.77148C118.708 10.0221 118.615 10.3193 118.564 10.6631C118.514 11.0068 118.489 11.3828 118.489 11.791ZM133.829 15.0781V10.2871C133.829 9.95768 133.783 9.6748 133.689 9.43848C133.596 9.20215 133.45 9.01953 133.249 8.89062C133.049 8.75456 132.78 8.68652 132.443 8.68652C132.171 8.68652 131.938 8.73307 131.745 8.82617C131.552 8.91927 131.405 9.05892 131.305 9.24512C131.204 9.43132 131.154 9.66764 131.154 9.9541H127.534C127.534 9.41699 127.652 8.91927 127.889 8.46094C128.132 7.99544 128.476 7.59082 128.92 7.24707C129.371 6.90332 129.908 6.63835 130.531 6.45215C131.161 6.25879 131.863 6.16211 132.637 6.16211C133.561 6.16211 134.384 6.31608 135.107 6.62402C135.838 6.93197 136.414 7.39388 136.837 8.00977C137.259 8.61849 137.471 9.38477 137.471 10.3086V15.0674C137.471 15.8265 137.514 16.403 137.6 16.7969C137.686 17.1836 137.807 17.5238 137.965 17.8174V18H134.334C134.162 17.6419 134.033 17.2051 133.947 16.6895C133.868 16.1667 133.829 15.6296 133.829 15.0781ZM134.27 10.8994L134.291 12.833H132.69C132.354 12.833 132.067 12.8796 131.831 12.9727C131.602 13.0658 131.416 13.1947 131.272 13.3594C131.136 13.5169 131.036 13.696 130.972 13.8965C130.914 14.097 130.886 14.3083 130.886 14.5303C130.886 14.7451 130.936 14.9385 131.036 15.1104C131.144 15.2751 131.287 15.404 131.466 15.4971C131.645 15.5902 131.845 15.6367 132.067 15.6367C132.468 15.6367 132.809 15.5615 133.088 15.4111C133.374 15.2536 133.593 15.0638 133.743 14.8418C133.894 14.6198 133.969 14.4121 133.969 14.2188L134.764 15.7012C134.62 15.9876 134.456 16.2777 134.27 16.5713C134.09 16.8649 133.865 17.137 133.593 17.3877C133.328 17.6312 133.002 17.8317 132.615 17.9893C132.229 18.1396 131.759 18.2148 131.208 18.2148C130.492 18.2148 129.833 18.068 129.231 17.7744C128.637 17.4808 128.161 17.0726 127.803 16.5498C127.445 16.0199 127.266 15.4111 127.266 14.7236C127.266 14.1221 127.373 13.585 127.588 13.1123C127.81 12.6396 128.143 12.2386 128.587 11.9092C129.031 11.5798 129.597 11.3291 130.284 11.1572C130.972 10.9854 131.781 10.8994 132.712 10.8994H134.27Z" fill="#1B3954"/>
</svg>
