<svg width="140" height="36" viewBox="0 0 140 36" fill="none" xmlns="http://www.w3.org/2000/svg">
<g clip-path="url(#clip0_840_2)">
<path d="M25 1.5H29C31.4853 1.5 33.5 3.51472 33.5 6V34C33.5 34.2761 33.2761 34.5 33 34.5H25C24.7239 34.5 24.5 34.2761 24.5 34V2C24.5 1.72386 24.7239 1.5 25 1.5Z" fill="#FEB73D" stroke="#1B3954"/>
<path d="M5 1.5H9C9.27614 1.5 9.5 1.72386 9.5 2V34C9.5 34.2761 9.27614 34.5 9 34.5H1C0.723858 34.5 0.5 34.2761 0.5 34V6C0.5 3.51472 2.51472 1.5 5 1.5Z" fill="#FEB73D" stroke="#1B3954"/>
<path d="M16.9497 17.1569L6.34314 6.55026" stroke="#FEB73D" stroke-width="9" stroke-linecap="round"/>
<path d="M17.3432 17.1569L27.9498 6.55026" stroke="#FEB73D" stroke-width="9" stroke-linecap="round"/>
<path d="M42.7744 29.8094V25.8895C42.7744 25.6199 42.7363 25.3885 42.6602 25.1951C42.584 25.0018 42.4639 24.8524 42.2998 24.7469C42.1357 24.6356 41.916 24.5799 41.6406 24.5799C41.418 24.5799 41.2275 24.618 41.0693 24.6942C40.9111 24.7703 40.791 24.8846 40.709 25.0369C40.627 25.1893 40.5859 25.3826 40.5859 25.617H37.624C37.624 25.1776 37.7207 24.7703 37.9141 24.3953C38.1133 24.0145 38.3945 23.6834 38.7578 23.4022C39.127 23.1209 39.5664 22.9041 40.0762 22.7518C40.5918 22.5936 41.166 22.5145 41.7988 22.5145C42.5547 22.5145 43.2285 22.6404 43.8203 22.8924C44.418 23.1443 44.8896 23.5223 45.2354 24.0262C45.5811 24.5242 45.7539 25.1512 45.7539 25.907V29.8006C45.7539 30.4217 45.7891 30.8934 45.8594 31.2156C45.9297 31.532 46.0293 31.8104 46.1582 32.0506V32.2H43.1875C43.0469 31.907 42.9414 31.5496 42.8711 31.1277C42.8066 30.7 42.7744 30.2606 42.7744 29.8094ZM43.1348 26.3904L43.1523 27.9725H41.8428C41.5674 27.9725 41.333 28.0106 41.1396 28.0867C40.9521 28.1629 40.7998 28.2684 40.6826 28.4031C40.5713 28.532 40.4893 28.6785 40.4365 28.8426C40.3896 29.0067 40.3662 29.1795 40.3662 29.3611C40.3662 29.5369 40.4072 29.6951 40.4893 29.8358C40.5771 29.9705 40.6943 30.076 40.8408 30.1522C40.9873 30.2283 41.1514 30.2664 41.333 30.2664C41.6611 30.2664 41.9395 30.2049 42.168 30.0818C42.4023 29.9529 42.5811 29.7977 42.7041 29.616C42.8271 29.4344 42.8887 29.2645 42.8887 29.1063L43.5391 30.3192C43.4219 30.5535 43.2871 30.7908 43.1348 31.0311C42.9883 31.2713 42.8037 31.494 42.5811 31.699C42.3643 31.8983 42.0977 32.0623 41.7812 32.1912C41.4648 32.3143 41.0811 32.3758 40.6299 32.3758C40.0439 32.3758 39.5049 32.2557 39.0127 32.0154C38.5264 31.7752 38.1367 31.4412 37.8438 31.0135C37.5508 30.5799 37.4043 30.0818 37.4043 29.5193C37.4043 29.0272 37.4922 28.5877 37.668 28.201C37.8496 27.8143 38.1221 27.4861 38.4854 27.2166C38.8486 26.9471 39.3115 26.742 39.874 26.6014C40.4365 26.4608 41.0986 26.3904 41.8604 26.3904H43.1348ZM53.374 22.6902H56.0635V31.8309C56.0635 32.7098 55.8613 33.4539 55.457 34.0633C55.0527 34.6785 54.4873 35.1443 53.7607 35.4608C53.04 35.783 52.1963 35.9442 51.2295 35.9442C50.8018 35.9442 50.3652 35.8885 49.9199 35.7772C49.4746 35.6717 49.0586 35.5135 48.6719 35.3026C48.2852 35.0916 47.96 34.8309 47.6963 34.5203L48.9355 32.7801C49.1758 33.0496 49.4775 33.2781 49.8408 33.4656C50.2041 33.659 50.6318 33.7557 51.124 33.7557C51.5518 33.7557 51.9092 33.6795 52.1963 33.5272C52.4893 33.3748 52.7119 33.1522 52.8643 32.8592C53.0166 32.5721 53.0928 32.2234 53.0928 31.8133V24.9402L53.374 22.6902ZM47.0547 27.5594V27.3748C47.0547 26.6541 47.1426 25.9979 47.3184 25.4061C47.5 24.8084 47.7578 24.2957 48.0918 23.868C48.4316 23.4344 48.8418 23.1004 49.3223 22.866C49.8027 22.6317 50.3447 22.5145 50.9482 22.5145C51.5986 22.5145 52.1318 22.6404 52.5479 22.8924C52.9697 23.1385 53.3066 23.4842 53.5586 23.9295C53.8164 24.3748 54.0156 24.8963 54.1562 25.494C54.3027 26.0858 54.4258 26.7244 54.5254 27.41V27.6297C54.4258 28.2742 54.2881 28.8836 54.1123 29.4578C53.9424 30.0262 53.7197 30.5301 53.4443 30.9695C53.1689 31.409 52.8232 31.7547 52.4072 32.0067C51.9971 32.2527 51.5049 32.3758 50.9307 32.3758C50.333 32.3758 49.7939 32.2557 49.3135 32.0154C48.8389 31.7752 48.4316 31.4383 48.0918 31.0047C47.7578 30.5711 47.5 30.0613 47.3184 29.4754C47.1426 28.8895 47.0547 28.2508 47.0547 27.5594ZM50.0166 27.3748V27.5594C50.0166 27.9168 50.0488 28.2479 50.1133 28.5526C50.1836 28.8572 50.2891 29.1268 50.4297 29.3611C50.5703 29.5897 50.7432 29.7684 50.9482 29.8973C51.1592 30.0262 51.4053 30.0906 51.6865 30.0906C52.1143 30.0906 52.46 29.9998 52.7236 29.8182C52.9873 29.6365 53.1777 29.3787 53.2949 29.0447C53.4121 28.7108 53.4619 28.3182 53.4443 27.867V27.1727C53.4561 26.7859 53.4297 26.4461 53.3652 26.1531C53.3008 25.8543 53.1982 25.6053 53.0576 25.4061C52.9229 25.2068 52.7412 25.0574 52.5127 24.9578C52.29 24.8524 52.0205 24.7996 51.7041 24.7996C51.4287 24.7996 51.1855 24.8641 50.9746 24.993C50.7637 25.1219 50.5879 25.3035 50.4473 25.5379C50.3066 25.7664 50.1982 26.0389 50.1221 26.3553C50.0518 26.6658 50.0166 27.0057 50.0166 27.3748ZM62.374 32.3758C61.6006 32.3758 60.9092 32.2557 60.2998 32.0154C59.6904 31.7693 59.1748 31.4324 58.7529 31.0047C58.3369 30.577 58.0176 30.0848 57.7949 29.5281C57.5781 28.9715 57.4697 28.3826 57.4697 27.7615V27.4276C57.4697 26.7303 57.5664 26.0858 57.7598 25.494C57.9531 24.8963 58.2402 24.3748 58.6211 23.9295C59.002 23.4842 59.4795 23.1385 60.0537 22.8924C60.6279 22.6404 61.2959 22.5145 62.0576 22.5145C62.7314 22.5145 63.335 22.6229 63.8682 22.8397C64.4014 23.0565 64.8525 23.367 65.2217 23.7713C65.5967 24.1756 65.8809 24.6649 66.0742 25.2391C66.2734 25.8133 66.373 26.4578 66.373 27.1727V28.3768H58.6035V26.5223H63.4814V26.2938C63.4873 25.9774 63.4316 25.7078 63.3145 25.4852C63.2031 25.2625 63.0391 25.0926 62.8223 24.9754C62.6055 24.8582 62.3418 24.7996 62.0312 24.7996C61.709 24.7996 61.4424 24.8699 61.2314 25.0106C61.0264 25.1512 60.8652 25.3445 60.748 25.5906C60.6367 25.8309 60.5576 26.1092 60.5107 26.4256C60.4639 26.742 60.4404 27.076 60.4404 27.4276V27.7615C60.4404 28.1131 60.4873 28.4324 60.5811 28.7195C60.6807 29.0067 60.8213 29.2527 61.0029 29.4578C61.1904 29.657 61.4131 29.8123 61.6709 29.9236C61.9346 30.035 62.2334 30.0906 62.5674 30.0906C62.9717 30.0906 63.3701 30.0145 63.7627 29.8621C64.1553 29.7098 64.4922 29.4578 64.7734 29.1063L66.1182 30.7059C65.9248 30.9813 65.6494 31.2479 65.292 31.5057C64.9404 31.7635 64.5186 31.9744 64.0264 32.1385C63.5342 32.2967 62.9834 32.3758 62.374 32.3758ZM70.4863 24.7205V32.2H67.5244V22.6902H70.3018L70.4863 24.7205ZM70.1348 27.1199L69.4404 27.1375C69.4404 26.4109 69.5283 25.7635 69.7041 25.1951C69.8799 24.6209 70.1289 24.1346 70.4512 23.7361C70.7734 23.3377 71.1572 23.0359 71.6025 22.8309C72.0537 22.6199 72.5547 22.5145 73.1055 22.5145C73.5449 22.5145 73.9463 22.5789 74.3096 22.7078C74.6787 22.8367 74.9951 23.0447 75.2588 23.3318C75.5283 23.619 75.7334 23.9998 75.874 24.4744C76.0205 24.9432 76.0938 25.5233 76.0938 26.2147V32.2H73.1143V26.2059C73.1143 25.825 73.0615 25.535 72.9561 25.3358C72.8506 25.1307 72.6982 24.9901 72.499 24.9139C72.2998 24.8377 72.0566 24.7996 71.7695 24.7996C71.4648 24.7996 71.207 24.8582 70.9961 24.9754C70.7852 25.0926 70.6152 25.2567 70.4863 25.4676C70.3633 25.6727 70.2725 25.9158 70.2139 26.1971C70.1611 26.4783 70.1348 26.7859 70.1348 27.1199ZM81.7539 30.0906C82.0293 30.0906 82.2637 30.0408 82.457 29.9412C82.6562 29.8358 82.8057 29.6893 82.9053 29.5018C83.0107 29.3084 83.0605 29.077 83.0547 28.8074H85.8408C85.8467 29.5223 85.6709 30.1492 85.3135 30.6883C84.9619 31.2215 84.4814 31.6375 83.8721 31.9363C83.2686 32.2293 82.5859 32.3758 81.8242 32.3758C81.0801 32.3758 80.4297 32.2557 79.873 32.0154C79.3164 31.7693 78.8506 31.4295 78.4756 30.9959C78.1064 30.5565 77.8281 30.0438 77.6406 29.4578C77.459 28.8719 77.3682 28.2361 77.3682 27.5506V27.3484C77.3682 26.6629 77.459 26.0272 77.6406 25.4412C77.8281 24.8494 78.1064 24.3367 78.4756 23.9031C78.8506 23.4637 79.3135 23.1238 79.8643 22.8836C80.4209 22.6375 81.0684 22.5145 81.8066 22.5145C82.5977 22.5145 83.2949 22.6639 83.8984 22.9627C84.5078 23.2615 84.9854 23.6951 85.3311 24.2635C85.6768 24.8318 85.8467 25.5203 85.8408 26.3289H83.0547C83.0605 26.0418 83.0166 25.784 82.9229 25.5555C82.8291 25.327 82.6826 25.1453 82.4834 25.0106C82.29 24.8699 82.041 24.7996 81.7363 24.7996C81.4316 24.7996 81.1855 24.867 80.998 25.0018C80.8105 25.1365 80.667 25.324 80.5674 25.5643C80.4736 25.7986 80.4092 26.0682 80.374 26.3729C80.3447 26.6776 80.3301 27.0027 80.3301 27.3484V27.5506C80.3301 27.9022 80.3447 28.2332 80.374 28.5438C80.4092 28.8484 80.4766 29.118 80.5762 29.3524C80.6758 29.5809 80.8193 29.7625 81.0068 29.8973C81.1943 30.0262 81.4434 30.0906 81.7539 30.0906ZM90.0244 31.0838L92.4854 22.6902H95.667L91.8438 33.6151C91.7617 33.8553 91.6533 34.1131 91.5186 34.3885C91.3838 34.6697 91.1992 34.9363 90.9648 35.1883C90.7305 35.4402 90.4287 35.6453 90.0596 35.8035C89.6963 35.9617 89.2451 36.0408 88.7061 36.0408C88.4189 36.0408 88.208 36.0262 88.0732 35.9969C87.9443 35.9734 87.7451 35.9295 87.4756 35.8651V33.7469C87.5518 33.7469 87.6162 33.7469 87.6689 33.7469C87.7275 33.7469 87.792 33.7469 87.8623 33.7469C88.1787 33.7469 88.4307 33.7147 88.6182 33.6502C88.8115 33.5858 88.958 33.492 89.0576 33.369C89.1631 33.2459 89.2451 33.0965 89.3037 32.9207L90.0244 31.0838ZM89.4004 22.6902L91.2725 29.3436L91.5977 32.4813H89.6113L86.2275 22.6902H89.4004Z" fill="#1B3954"/>
<path d="M39.0615 1.35938H42.1338L45.625 12.2412L49.1162 1.35938H52.1885L46.8711 17H44.3789L39.0615 1.35938ZM37.1924 1.35938H40.3721L40.9629 13.3477V17H37.1924V1.35938ZM50.8779 1.35938H54.0684V17H50.2871V13.3477L50.8779 1.35938ZM59.8799 15.6357L62.8877 5.37695H66.7764L62.1035 18.7295C62.0033 19.0231 61.8708 19.3382 61.7061 19.6748C61.5413 20.0186 61.3158 20.3444 61.0293 20.6523C60.7428 20.9603 60.374 21.2109 59.9229 21.4043C59.4788 21.5977 58.9274 21.6943 58.2686 21.6943C57.9176 21.6943 57.6598 21.6764 57.4951 21.6406C57.3376 21.612 57.0941 21.5583 56.7646 21.4795V18.8906C56.8577 18.8906 56.9365 18.8906 57.001 18.8906C57.0726 18.8906 57.1514 18.8906 57.2373 18.8906C57.624 18.8906 57.932 18.8512 58.1611 18.7725C58.3975 18.6937 58.5765 18.5791 58.6982 18.4287C58.8271 18.2783 58.9274 18.0957 58.999 17.8809L59.8799 15.6357ZM59.1172 5.37695L61.4053 13.5088L61.8027 17.3438H59.375L55.2393 5.37695H59.1172ZM80.3008 1.35938V17H76.5303V1.35938H80.3008ZM85.0059 1.35938V4.27051H71.9326V1.35938H85.0059ZM89.3779 8.25586V17H85.7578V5.37695H89.1416L89.3779 8.25586ZM92.8154 5.29102L92.751 8.65332C92.6077 8.639 92.4144 8.62109 92.1709 8.59961C91.9274 8.57812 91.7233 8.56738 91.5586 8.56738C91.1361 8.56738 90.7708 8.61751 90.4629 8.71777C90.1621 8.81087 89.9115 8.9541 89.7109 9.14746C89.5176 9.33366 89.3743 9.56999 89.2812 9.85645C89.1953 10.1429 89.1559 10.4759 89.1631 10.8555L88.5078 10.4258C88.5078 9.64518 88.583 8.9362 88.7334 8.29883C88.891 7.6543 89.113 7.09928 89.3994 6.63379C89.6859 6.16113 90.0332 5.79948 90.4414 5.54883C90.8496 5.29102 91.3079 5.16211 91.8164 5.16211C91.9954 5.16211 92.1709 5.17285 92.3428 5.19434C92.5218 5.21582 92.6794 5.24805 92.8154 5.29102ZM99.7764 14.0781V9.28711C99.7764 8.95768 99.7298 8.6748 99.6367 8.43848C99.5436 8.20215 99.3968 8.01953 99.1963 7.89062C98.9958 7.75456 98.7272 7.68652 98.3906 7.68652C98.1185 7.68652 97.8857 7.73307 97.6924 7.82617C97.499 7.91927 97.3522 8.05892 97.252 8.24512C97.1517 8.43132 97.1016 8.66764 97.1016 8.9541H93.4814C93.4814 8.41699 93.5996 7.91927 93.8359 7.46094C94.0794 6.99544 94.4232 6.59082 94.8672 6.24707C95.3184 5.90332 95.8555 5.63835 96.4785 5.45215C97.1087 5.25879 97.8105 5.16211 98.584 5.16211C99.5078 5.16211 100.331 5.31608 101.055 5.62402C101.785 5.93197 102.362 6.39388 102.784 7.00977C103.207 7.61849 103.418 8.38477 103.418 9.30859V14.0674C103.418 14.8265 103.461 15.403 103.547 15.7969C103.633 16.1836 103.755 16.5238 103.912 16.8174V17H100.281C100.109 16.6419 99.9805 16.2051 99.8945 15.6895C99.8158 15.1667 99.7764 14.6296 99.7764 14.0781ZM100.217 9.89941L100.238 11.833H98.6377C98.3011 11.833 98.0146 11.8796 97.7783 11.9727C97.5492 12.0658 97.363 12.1947 97.2197 12.3594C97.0837 12.5169 96.9834 12.696 96.9189 12.8965C96.8617 13.097 96.833 13.3083 96.833 13.5303C96.833 13.7451 96.8831 13.9385 96.9834 14.1104C97.0908 14.2751 97.234 14.404 97.4131 14.4971C97.5921 14.5902 97.7926 14.6367 98.0146 14.6367C98.4157 14.6367 98.7559 14.5615 99.0352 14.4111C99.3216 14.2536 99.54 14.0638 99.6904 13.8418C99.8408 13.6198 99.916 13.4121 99.916 13.2188L100.711 14.7012C100.568 14.9876 100.403 15.2777 100.217 15.5713C100.038 15.8649 99.8122 16.137 99.54 16.3877C99.2751 16.6312 98.9492 16.8317 98.5625 16.9893C98.1758 17.1396 97.7067 17.2148 97.1553 17.2148C96.4391 17.2148 95.7803 17.068 95.1787 16.7744C94.5843 16.4808 94.1081 16.0726 93.75 15.5498C93.3919 15.0199 93.2129 14.4111 93.2129 13.7236C93.2129 13.1221 93.3203 12.585 93.5352 12.1123C93.7572 11.6396 94.0902 11.2386 94.5342 10.9092C94.9782 10.5798 95.5439 10.3291 96.2314 10.1572C96.9189 9.98535 97.7282 9.89941 98.6592 9.89941H100.217ZM109.444 14.5186L111.732 5.37695H115.546L111.743 17H109.487L109.444 14.5186ZM108.091 5.37695L110.347 14.5186L110.325 17H108.059L104.267 5.37695H108.091ZM122.099 17.2148C121.153 17.2148 120.308 17.068 119.563 16.7744C118.819 16.4736 118.188 16.0618 117.673 15.5391C117.164 15.0163 116.774 14.4147 116.502 13.7344C116.237 13.054 116.104 12.3343 116.104 11.5752V11.167C116.104 10.3148 116.223 9.52702 116.459 8.80371C116.695 8.07324 117.046 7.43587 117.512 6.8916C117.977 6.34733 118.561 5.9248 119.263 5.62402C119.965 5.31608 120.781 5.16211 121.712 5.16211C122.535 5.16211 123.273 5.2946 123.925 5.55957C124.576 5.82454 125.128 6.2041 125.579 6.69824C126.037 7.19238 126.385 7.79036 126.621 8.49219C126.865 9.19401 126.986 9.98177 126.986 10.8555V12.3271H117.49V10.0605H123.452V9.78125C123.459 9.39453 123.391 9.0651 123.248 8.79297C123.112 8.52083 122.911 8.31315 122.646 8.16992C122.382 8.02669 122.059 7.95508 121.68 7.95508C121.286 7.95508 120.96 8.04102 120.702 8.21289C120.451 8.38477 120.255 8.62109 120.111 8.92188C119.975 9.21549 119.879 9.55566 119.821 9.94238C119.764 10.3291 119.735 10.7373 119.735 11.167V11.5752C119.735 12.0049 119.793 12.3952 119.907 12.7461C120.029 13.097 120.201 13.3978 120.423 13.6484C120.652 13.8919 120.924 14.0817 121.239 14.2178C121.562 14.3538 121.927 14.4219 122.335 14.4219C122.829 14.4219 123.316 14.3288 123.796 14.1426C124.276 13.9564 124.688 13.6484 125.031 13.2188L126.675 15.1738C126.438 15.5104 126.102 15.8363 125.665 16.1514C125.235 16.4665 124.72 16.7243 124.118 16.9248C123.517 17.1182 122.843 17.2148 122.099 17.2148ZM132.282 0.5V17H128.651V0.5H132.282Z" fill="#1B3954"/>
</g>
<defs>
<clipPath id="clip0_840_2">
<rect width="140" height="36" fill="white"/>
</clipPath>
</defs>
</svg>
